<svg id="Layer_1" data-name="Layer 1"
     xmlns="http://www.w3.org/2000/svg" viewBox="0 0 166.95 42" width="127.2px" height="32px">
    <defs>
        <style>.cls-1{fill:none;stroke:#333;stroke-linecap:round;stroke-linejoin:round;stroke-width:2px;}</style>
    </defs>
    <path class="cls-1" d="M320.39,140.3a20,20,0,1,0-20-20A20,20,0,0,0,320.39,140.3Z"
          transform="translate(-249.18 -99.3)"/>
    <path class="cls-1" d="M300.39,120.3h40" transform="translate(-249.18 -99.3)"/>
    <path class="cls-1" d="M320.39,140.3c4.42,0,8-9,8-20s-3.58-20-8-20-8,9-8,20S316,140.3,320.39,140.3Z"
          transform="translate(-249.18 -99.3)"/>
    <path class="cls-1" d="M306.25,106.45a20,20,0,0,0,28.28,0" transform="translate(-249.18 -99.3)"/>
    <path class="cls-1" d="M334.53,134.16a20,20,0,0,0-28.28,0" transform="translate(-249.18 -99.3)"/>
    <path d="M261.4,102.84h3l12.26,35h-3.06l-6.8-20.4c-1.4-4.12-2.56-7.78-3.8-12h-.19c-1.23,4.27-2.43,7.92-3.83,12l-6.88,20.4h-2.89Zm-6.5,20.93h15.83v2.35H254.9Z"
          transform="translate(-249.18 -99.3)"/>
    <path d="M286.92,102.84h2.86v35h-2.86Z" transform="translate(-249.18 -99.3)"/>
    <path d="M348.72,133.44l1.79-2a13.64,13.64,0,0,0,10.14,4.66c5.18,0,8.4-2.73,8.4-6.71,0-4.24-2.77-5.56-6.21-7.1l-5.2-2.32c-3.14-1.37-7.13-3.6-7.13-8.75s4.41-8.78,10.38-8.78a13.43,13.43,0,0,1,9.84,4.22l-1.61,1.87a11.27,11.27,0,0,0-8.23-3.5c-4.49,0-7.45,2.34-7.45,5.95,0,4,3.42,5.44,6,6.57l5.19,2.3c4,1.78,7.34,4,7.34,9.31s-4.43,9.53-11.33,9.53A15.64,15.64,0,0,1,348.72,133.44Z"
          transform="translate(-249.18 -99.3)"/>
    <path d="M381.61,125.32c0-8.58,5.51-13.5,11.86-13.5A10.54,10.54,0,0,1,401,115l-1.56,1.91a8.52,8.52,0,0,0-5.84-2.61c-5.12,0-9,4.5-9,11.07s3.59,11,9,11a9.92,9.92,0,0,0,6.64-2.85l1.38,2a12.47,12.47,0,0,1-8.22,3.33C386.67,138.7,381.61,133.78,381.61,125.32Z"
          transform="translate(-249.18 -99.3)"/>
    <path d="M411.7,104.12a2.13,2.13,0,0,1,2.22-2.23,2.3,2.3,0,1,1-2.22,2.23Zm.76,8.33h2.82v25.62h-2.82Z"
          transform="translate(-249.18 -99.3)"/>
</svg>